<svg xmlns="http://www.w3.org/2000/svg" xmlns:xlink="http://www.w3.org/1999/xlink" preserveAspectRatio="xMidYMid" width="18" height="18" viewBox="0 0 18 18">
  <defs>
    <style>
      .box-1 {
        fill: #2d2d2d;
        fill-rule: evenodd;
      }
    </style>
  </defs>
  <path d="M17.526,2.200 C17.215,1.926 15.528,0.620 15.212,0.340 C14.897,0.062 14.403,-0.016 14.057,-0.016 L3.964,-0.016 C3.617,-0.016 3.123,0.062 2.808,0.340 C2.493,0.620 0.804,1.926 0.495,2.200 C0.184,2.473 -0.074,2.885 0.008,3.476 C0.091,4.064 2.038,17.380 2.038,17.380 C2.149,17.716 2.522,17.990 2.870,17.990 L15.152,17.990 C15.498,17.990 15.873,17.716 15.981,17.380 C15.981,17.380 17.928,4.064 18.012,3.476 C18.094,2.885 17.836,2.473 17.526,2.200 ZM13.463,6.868 C13.463,6.868 13.415,7.235 13.351,7.718 C13.348,7.735 13.347,7.751 13.344,7.768 C13.338,7.825 13.331,7.882 13.321,7.939 C13.129,9.173 12.442,10.238 11.475,10.916 C10.773,11.406 9.925,11.695 9.010,11.695 C8.096,11.695 7.247,11.406 6.545,10.916 C5.578,10.238 4.890,9.173 4.698,7.939 C4.690,7.882 4.681,7.825 4.675,7.768 C4.673,7.751 4.671,7.735 4.669,7.718 C4.606,7.235 4.556,6.868 4.556,6.868 C4.554,6.848 4.554,6.826 4.554,6.805 C4.554,6.785 4.554,6.765 4.556,6.744 C4.569,6.588 4.634,6.447 4.731,6.339 C4.848,6.208 5.013,6.122 5.198,6.113 C5.209,6.113 5.221,6.113 5.232,6.113 C5.243,6.113 5.255,6.113 5.267,6.113 L5.403,6.113 C5.414,6.113 5.426,6.113 5.437,6.113 C5.448,6.113 5.460,6.113 5.472,6.113 C5.688,6.124 5.876,6.238 5.992,6.407 C6.064,6.511 6.091,6.619 6.115,6.771 C6.115,6.776 6.174,7.142 6.244,7.567 C6.256,7.652 6.270,7.739 6.285,7.825 C6.285,7.828 6.285,7.829 6.285,7.832 C6.408,8.414 6.705,8.930 7.118,9.322 C7.615,9.792 8.280,10.079 9.010,10.079 C9.740,10.079 10.405,9.792 10.901,9.322 C11.315,8.930 11.611,8.414 11.734,7.832 C11.734,7.829 11.735,7.828 11.735,7.825 C11.750,7.739 11.764,7.652 11.777,7.567 C11.845,7.142 11.903,6.776 11.905,6.771 C11.929,6.619 11.956,6.511 12.027,6.407 C12.143,6.238 12.332,6.124 12.548,6.113 C12.560,6.113 12.571,6.113 12.582,6.113 C12.594,6.113 12.606,6.113 12.618,6.113 L12.753,6.113 C12.765,6.113 12.776,6.113 12.787,6.113 C12.799,6.113 12.810,6.113 12.823,6.113 C13.008,6.122 13.173,6.208 13.289,6.339 C13.386,6.447 13.450,6.588 13.463,6.744 C13.465,6.765 13.466,6.785 13.466,6.805 C13.466,6.826 13.465,6.848 13.463,6.868 ZM15.641,3.006 C15.637,3.007 15.633,3.007 15.629,3.007 C15.625,3.007 15.622,3.007 15.618,3.006 L14.714,3.006 L13.202,3.006 L10.200,3.006 L7.820,3.006 L4.788,3.006 L3.276,3.006 L2.374,3.006 C2.370,3.007 2.366,3.007 2.362,3.007 C2.358,3.007 2.355,3.007 2.351,3.006 C2.169,3.001 2.024,2.847 2.024,2.661 C2.024,2.553 2.070,2.458 2.146,2.395 C2.154,2.386 2.163,2.380 2.174,2.373 L3.416,1.244 C3.416,1.244 3.417,1.243 3.418,1.242 C3.443,1.221 3.469,1.202 3.496,1.183 L3.497,1.183 C3.646,1.080 3.822,1.016 4.013,1.006 C4.030,1.006 4.047,1.005 4.065,1.005 C4.083,1.005 4.100,1.006 4.117,1.006 L13.898,1.006 C13.907,1.006 13.916,1.006 13.924,1.006 C13.934,1.006 13.942,1.006 13.951,1.006 C14.152,1.011 14.338,1.076 14.494,1.183 C14.495,1.185 14.496,1.186 14.497,1.186 C14.522,1.203 14.545,1.221 14.568,1.240 C14.569,1.241 14.571,1.242 14.572,1.244 L15.800,2.362 C15.821,2.374 15.840,2.388 15.858,2.407 C15.926,2.468 15.968,2.559 15.968,2.661 C15.968,2.847 15.823,3.001 15.641,3.006 Z" class="box-1"/>
</svg>
